<svg xmlns="http://www.w3.org/2000/svg" viewBox="0 0 260 176" width="260" height="176"><rect x="1.5" y="1.5" width="257" height="173" rx="14" fill="#fffdf6" stroke="#eadfc8" stroke-width="2"/><line x1="24" y1="64" x2="236" y2="64" stroke="#26221b" stroke-width="1.4" stroke-linecap="butt"/><line x1="24" y1="76" x2="236" y2="76" stroke="#26221b" stroke-width="1.4" stroke-linecap="butt"/><line x1="24" y1="88" x2="236" y2="88" stroke="#26221b" stroke-width="1.4" stroke-linecap="butt"/><line x1="24" y1="100" x2="236" y2="100" stroke="#26221b" stroke-width="1.4" stroke-linecap="butt"/><line x1="24" y1="112" x2="236" y2="112" stroke="#26221b" stroke-width="1.4" stroke-linecap="butt"/><path d="M 54,52 C 60,57 61,65 57,71 C 50,80 44,84 44,92 C 44,101 50.5,107 55.5,107 C 61.5,107 63.5,100 61,95.5 C 59,91.5 53,91 50.5,94.5" fill="none" stroke="#26221b" stroke-width="2.6" stroke-linecap="round"/><path d="M 54,52 L 54,117 C 54,123 46,123 46,118" fill="none" stroke="#26221b" stroke-width="2.6" stroke-linecap="round"/><circle cx="48.4" cy="118.5" r="2.6" fill="#26221b"/><g transform="translate(160,82)"><ellipse rx="9.4" ry="6.1" fill="#26221b"/><ellipse rx="4.6" ry="3.3" fill="#fffdf6" transform="rotate(-32)"/></g><g transform="translate(160,70)"><ellipse rx="9.4" ry="6.1" fill="#26221b"/><ellipse rx="4.6" ry="3.3" fill="#fffdf6" transform="rotate(-32)"/></g><g transform="translate(138,58) scale(1)"><line x1="-3" y1="-9.5" x2="-3" y2="11.5" stroke="#26221b" stroke-width="1.5" stroke-linecap="round"/><line x1="3" y1="-11.5" x2="3" y2="9.5" stroke="#26221b" stroke-width="1.5" stroke-linecap="round"/><path d="M -6.5,-0.6000000000000001 L 6.5,-4.2 L 6.5,-7.4 L -6.5,-3.8 Z" fill="#26221b"/><path d="M -6.5,7.4 L 6.5,3.8 L 6.5,0.6000000000000001 L -6.5,4.2 Z" fill="#26221b"/></g><g transform="translate(160,58)"><ellipse rx="9.4" ry="6.1" fill="#26221b"/><ellipse rx="4.6" ry="3.3" fill="#fffdf6" transform="rotate(-32)"/></g></svg>
